<svg width="38" height="38" viewBox="0 0 38 38" fill="none" xmlns="http://www.w3.org/2000/svg">
<g clip-path="url(#clip0_86_2083)">
<path d="M19 0C13.9609 0 9.12816 2.00178 5.56497 5.56497C2.00178 9.12816 0 13.9609 0 19C0 24.0391 2.00178 28.8718 5.56497 32.435C9.12816 35.9982 13.9609 38 19 38C24.0391 38 28.8718 35.9982 32.435 32.435C35.9982 28.8718 38 24.0391 38 19C38 13.9609 35.9982 9.12816 32.435 5.56497C28.8718 2.00178 24.0391 0 19 0V0ZM27.3125 17.8125C27.6274 17.8125 27.9295 17.9376 28.1522 18.1603C28.3749 18.383 28.5 18.6851 28.5 19C28.5 19.3149 28.3749 19.617 28.1522 19.8397C27.9295 20.0624 27.6274 20.1875 27.3125 20.1875H13.5541L18.6532 25.2843C18.7637 25.3947 18.8512 25.5257 18.911 25.67C18.9707 25.8142 19.0015 25.9689 19.0015 26.125C19.0015 26.2811 18.9707 26.4358 18.911 26.58C18.8512 26.7243 18.7637 26.8553 18.6532 26.9657C18.5428 27.0762 18.4118 27.1637 18.2675 27.2235C18.1233 27.2832 17.9686 27.314 17.8125 27.314C17.6564 27.314 17.5017 27.2832 17.3575 27.2235C17.2132 27.1637 17.0822 27.0762 16.9718 26.9657L9.84675 19.8407C9.73616 19.7304 9.64842 19.5994 9.58856 19.4551C9.52869 19.3109 9.49788 19.1562 9.49788 19C9.49788 18.8438 9.52869 18.6891 9.58856 18.5449C9.64842 18.4006 9.73616 18.2696 9.84675 18.1593L16.9718 11.0343C17.1947 10.8113 17.4972 10.686 17.8125 10.686C18.1278 10.686 18.4303 10.8113 18.6532 11.0343C18.8762 11.2572 19.0015 11.5597 19.0015 11.875C19.0015 12.1903 18.8762 12.4928 18.6532 12.7157L13.5541 17.8125H27.3125Z" fill="white"/>
</g>
<defs>
<clipPath id="clip0_86_2083">
<rect width="38" height="38" fill="white"/>
</clipPath>
</defs>
</svg>
