<svg width="191" height="55" viewBox="0 0 191 55" fill="none" xmlns="http://www.w3.org/2000/svg">
<path d="M2.6084 18.1318C3.70264 18.1318 4.38818 17.4067 4.38818 16.2334V2.94434H10.9668C11.8501 2.94434 12.4697 2.33789 12.4697 1.48096C12.4697 0.624023 11.8501 0.00439453 10.9668 0.00439453H3.20166C1.60645 0.00439453 0.828613 0.769043 0.828613 2.28516V16.2334C0.828613 17.4199 1.50098 18.1318 2.6084 18.1318ZM17.3872 21.0586V15.8643H17.5718C18.1782 17.3408 19.6284 18.1846 21.54 18.1846C24.8096 18.1846 26.8003 15.8379 26.8003 11.9487V10.0107C26.8003 6.12158 24.8359 3.78809 21.5928 3.78809C19.6152 3.78809 18.0728 4.72412 17.5059 6.22705H17.3345V5.55469C17.2686 4.47363 16.6489 3.88037 15.6206 3.88037C14.5264 3.88037 13.9199 4.56592 13.9199 5.80518V21.0586C13.9199 22.2847 14.5396 22.9702 15.647 22.9702C16.7676 22.9702 17.3872 22.2847 17.3872 21.0586ZM17.3872 12.0015V10.1426C17.3872 7.90137 18.5078 6.56982 20.3271 6.56982C22.186 6.56982 23.2407 7.94092 23.2407 10.3535V11.6191C23.2407 14.0186 22.186 15.4028 20.3667 15.4028C18.5869 15.4028 17.3872 14.0581 17.3872 12.0015ZM37.624 16.2202H37.7954V16.708C37.9009 17.6177 38.5073 18.1318 39.4302 18.1318C40.5112 18.1318 41.1177 17.4595 41.1177 16.2729V8.62646C41.1177 5.52832 39.061 3.78809 35.396 3.78809C33.8667 3.78809 32.6934 4.05176 31.8101 4.51318C30.584 5.13281 30.0171 5.96338 30.0171 6.78076C30.0171 7.49268 30.4917 8.00684 31.2563 8.00684C31.8232 8.00684 32.1924 7.86182 32.5879 7.54541C33.3657 6.84668 34.1172 6.45117 35.1719 6.45117C36.7671 6.45117 37.6504 7.18945 37.6504 8.6001V9.74707H34.3281C31.1509 9.74707 29.2393 11.3423 29.2393 13.9263C29.2393 16.4707 31.085 18.1846 33.814 18.1846C35.5278 18.1846 36.9121 17.4727 37.624 16.2202ZM32.6934 13.7153C32.6934 12.5684 33.5371 11.8828 34.9609 11.8828H37.6504V13.333C37.6504 14.6514 36.4771 15.6797 34.9741 15.6797C33.6162 15.6797 32.6934 14.8755 32.6934 13.7153ZM50.0693 21.8101C51.0581 21.8101 51.5854 21.2432 51.5854 20.1753V18H61.2754V20.1753C61.2754 21.2563 61.7896 21.8101 62.7915 21.8101C63.7803 21.8101 64.3076 21.2432 64.3076 20.1753V17.6309C64.3076 16.1675 63.7144 15.4556 62.3564 15.3765H62.2378V6.13477C62.2378 4.75049 61.4468 4.01221 59.9834 4.01221H53.563C52.0996 4.01221 51.3613 4.71094 51.3086 6.13477L51.2031 9.18018C51.0317 13.4912 50.7812 14.7832 49.9902 15.3765C49.0146 15.5347 48.5664 16.207 48.5664 17.4858V20.1753C48.5664 21.2563 49.0806 21.8101 50.0693 21.8101ZM58.7969 15.3765H53.3389V15.2446C53.9453 14.3877 54.1562 13.0693 54.3276 9.23291L54.4463 6.63574H58.7969V15.3765ZM75.2368 16.2202C75.2368 17.4463 75.8696 18.1318 76.9639 18.1318C78.0713 18.1318 78.7041 17.4463 78.7041 16.2202V6.13477C78.7041 4.75049 77.9263 4.01221 76.4497 4.01221H70.5435C69.0801 4.01221 68.3154 4.75049 68.3022 6.13477L68.2627 9.12744C68.2231 13.6758 67.9858 15.0864 66.707 15.2051C66.3906 15.2578 66.1401 15.3369 65.8765 15.4951C65.4678 15.6401 65.1909 16.0225 65.1909 16.5498C65.1909 17.0112 65.3755 17.4199 65.7183 17.71C66.0874 18.0264 66.6279 18.2109 67.3003 18.2109C70.2534 18.2109 71.1499 16.1807 71.3213 9.37793L71.4004 6.63574H75.2368V16.2202ZM91.8613 18.1318C92.9688 18.1318 93.6016 17.4463 93.6016 16.2202V6.13477C93.6016 4.75049 92.8105 4.01221 91.3472 4.01221H87.5503C84.2676 4.01221 82.1318 5.81836 82.1318 8.58691C82.1318 10.5776 83.1733 12.041 85.019 12.6475L83.002 15.0469C82.4351 15.6006 82.1714 16.1411 82.1714 16.7607C82.1714 17.5518 82.8701 18.1318 83.8062 18.1318C84.5312 18.1318 84.8608 17.8945 85.8628 16.6816L88.5259 13.2803H90.1211V16.2202C90.1211 17.4463 90.7539 18.1318 91.8613 18.1318ZM88.0117 10.9072C86.5088 10.9072 85.5464 10.0767 85.5464 8.78467C85.5464 7.47949 86.522 6.63574 87.9985 6.63574H90.1211V10.9072H88.0117ZM107.273 18.1318C108.341 18.1318 109.013 17.4858 109.013 16.2202V6.63574H111.808C112.625 6.63574 113.179 6.1084 113.179 5.31738C113.179 4.52637 112.625 4.01221 111.808 4.01221H102.751C101.934 4.01221 101.38 4.52637 101.38 5.31738C101.38 6.1084 101.934 6.63574 102.751 6.63574H105.546V16.2202C105.546 17.4727 106.192 18.1318 107.273 18.1318ZM126.389 18.1318C127.483 18.1318 128.037 17.4858 128.037 16.207V5.87109C128.037 4.60547 127.417 3.86719 126.271 3.86719C125.203 3.86719 124.728 4.28906 123.752 5.85791L119.099 13.0298H118.954V5.80518C118.954 4.52637 118.4 3.88037 117.306 3.88037C116.211 3.88037 115.658 4.52637 115.658 5.80518V16.0093C115.658 17.354 116.304 18.1318 117.398 18.1318C118.532 18.1318 119.046 17.6968 119.982 16.1543L124.609 8.98242H124.741V16.207C124.741 17.4858 125.308 18.1318 126.389 18.1318ZM131.188 16.5366C131.188 17.4463 131.887 18.1318 132.73 18.1318C133.495 18.1318 133.97 17.7891 134.55 16.9058L136.989 13.1616H137.16L139.652 16.9189C140.206 17.7759 140.72 18.1318 141.498 18.1318C142.341 18.1318 143.04 17.4463 143.04 16.5234C143.04 16.062 142.869 15.6533 142.5 15.271L139.085 11.0127L142.592 6.64893C142.869 6.3457 143.014 5.93701 143.014 5.51514C143.014 4.59229 142.328 3.91992 141.458 3.91992C140.707 3.91992 140.232 4.2627 139.652 5.13281L137.16 8.87695H136.989L134.484 5.13281C133.917 4.2627 133.429 3.91992 132.678 3.91992C131.808 3.91992 131.096 4.59229 131.096 5.50195C131.096 5.93701 131.28 6.39844 131.557 6.68848L135.077 11.0127L131.61 15.3896C131.346 15.6797 131.188 16.1147 131.188 16.5366ZM150.858 16.5366C150.858 17.4463 151.557 18.1318 152.4 18.1318C153.165 18.1318 153.64 17.7891 154.22 16.9058L156.659 13.1616H156.83L159.322 16.9189C159.875 17.7759 160.39 18.1318 161.167 18.1318C162.011 18.1318 162.71 17.4463 162.71 16.5234C162.71 16.062 162.539 15.6533 162.169 15.271L158.755 11.0127L162.262 6.64893C162.539 6.3457 162.684 5.93701 162.684 5.51514C162.684 4.59229 161.998 3.91992 161.128 3.91992C160.376 3.91992 159.902 4.2627 159.322 5.13281L156.83 8.87695H156.659L154.154 5.13281C153.587 4.2627 153.099 3.91992 152.348 3.91992C151.478 3.91992 150.766 4.59229 150.766 5.50195C150.766 5.93701 150.95 6.39844 151.227 6.68848L154.747 11.0127L151.28 15.3896C151.016 15.6797 150.858 16.1147 150.858 16.5366ZM170.422 18.1318C171.49 18.1318 172.163 17.4858 172.163 16.2202V6.63574H174.958C175.775 6.63574 176.329 6.1084 176.329 5.31738C176.329 4.52637 175.775 4.01221 174.958 4.01221H165.9C165.083 4.01221 164.529 4.52637 164.529 5.31738C164.529 6.1084 165.083 6.63574 165.9 6.63574H168.695V16.2202C168.695 17.4727 169.341 18.1318 170.422 18.1318ZM184.516 3.70898C180.692 3.70898 178.056 6.12158 178.056 10.1558V11.8037C178.056 15.9434 180.692 18.3032 184.516 18.3032C188.326 18.3032 190.962 15.9434 190.962 11.7905V10.1426C190.962 6.12158 188.326 3.70898 184.516 3.70898ZM184.516 6.41162C186.322 6.41162 187.39 7.86182 187.39 10.2217V11.7773C187.39 14.1636 186.322 15.6006 184.516 15.6006C182.736 15.6006 181.628 14.1636 181.628 11.7773V10.2217C181.628 7.86182 182.736 6.41162 184.516 6.41162ZM33.9194 48.2202C33.9194 49.4858 34.5786 50.1318 35.6597 50.1318C36.7275 50.1318 37.3867 49.4858 37.3867 48.2202V38.1348C37.3867 36.7505 36.6089 36.0122 35.1323 36.0122H27.5386C26.062 36.0122 25.2842 36.7505 25.2842 38.1348V48.2202C25.2842 49.4727 25.9302 50.1318 26.998 50.1318C28.0659 50.1318 28.7515 49.4858 28.7515 48.2202V38.6357H33.9194V48.2202ZM40.5376 43.9224C40.5376 47.8906 43.0688 50.3032 47.1689 50.3032C48.9751 50.3032 50.5703 49.8286 51.4932 49.0508C52.1523 48.5762 52.5347 47.9829 52.5347 47.3633C52.5347 46.5986 52.0337 46.0977 51.3086 46.0977C50.7681 46.0977 50.5308 46.2954 49.8584 46.8096C49.2388 47.3237 48.4741 47.5874 47.3931 47.5874C45.3232 47.5874 44.084 46.335 44.0708 44.3838V43.7773H51.1504C52.4556 43.7773 52.9038 43.2632 52.9038 41.6943C52.9038 38.2402 50.3857 35.709 46.8262 35.709C43.0688 35.709 40.5376 38.293 40.5376 42.1162V43.9224ZM44.0708 41.5757V41.5493C44.0708 39.6641 45.165 38.3984 46.8789 38.3984C48.5269 38.3984 49.5815 39.6377 49.5815 41.5493V41.5757H44.0708ZM59.5088 53.0586V47.8643H59.6934C60.2998 49.3408 61.75 50.1846 63.6616 50.1846C66.9312 50.1846 68.9219 47.8379 68.9219 43.9487V42.0107C68.9219 38.1216 66.9575 35.7881 63.7144 35.7881C61.7368 35.7881 60.1943 36.7241 59.6274 38.2271H59.4561V37.5547C59.3901 36.4736 58.7705 35.8804 57.7422 35.8804C56.6479 35.8804 56.0415 36.5659 56.0415 37.8052V53.0586C56.0415 54.2847 56.6611 54.9702 57.7686 54.9702C58.8892 54.9702 59.5088 54.2847 59.5088 53.0586ZM59.5088 44.0015V42.1426C59.5088 39.9014 60.6294 38.5698 62.4487 38.5698C64.3076 38.5698 65.3623 39.9409 65.3623 42.3535V43.6191C65.3623 46.0186 64.3076 47.4028 62.4883 47.4028C60.7085 47.4028 59.5088 46.0581 59.5088 44.0015ZM71.519 43.9224C71.519 47.8906 74.0503 50.3032 78.1504 50.3032C79.9565 50.3032 81.5518 49.8286 82.4746 49.0508C83.1338 48.5762 83.5161 47.9829 83.5161 47.3633C83.5161 46.5986 83.0151 46.0977 82.29 46.0977C81.7495 46.0977 81.5122 46.2954 80.8398 46.8096C80.2202 47.3237 79.4556 47.5874 78.3745 47.5874C76.3047 47.5874 75.0654 46.335 75.0522 44.3838V43.7773H82.1318C83.437 43.7773 83.8853 43.2632 83.8853 41.6943C83.8853 38.2402 81.3672 35.709 77.8076 35.709C74.0503 35.709 71.519 38.293 71.519 42.1162V43.9224ZM75.0522 41.5757V41.5493C75.0522 39.6641 76.1465 38.3984 77.8604 38.3984C79.5083 38.3984 80.563 39.6377 80.563 41.5493V41.5757H75.0522ZM101.274 50.1318C102.263 50.1318 102.87 49.5254 102.87 48.3521V38.1875C102.87 36.7505 102 35.8936 100.747 35.8936C99.5342 35.8936 98.7563 36.4473 98.1631 37.8184L95.0649 44.6475H94.9199L91.835 37.8184C91.2417 36.4604 90.4243 35.8936 89.1982 35.8936C87.9458 35.8936 87.0493 36.7505 87.0493 38.1875V48.3521C87.0493 49.5122 87.6426 50.1318 88.6445 50.1318C89.6465 50.1318 90.2529 49.5254 90.2529 48.3521V41.1934H90.3848L93.2061 47.0732C93.6016 47.8906 94.1948 48.3521 94.999 48.3521C95.79 48.3521 96.3438 47.8906 96.7393 47.0601L99.5342 41.1934H99.666V48.3521C99.666 49.5122 100.272 50.1318 101.274 50.1318ZM114.26 48.2202H114.432V48.708C114.537 49.6177 115.144 50.1318 116.066 50.1318C117.147 50.1318 117.754 49.4595 117.754 48.2729V40.6265C117.754 37.5283 115.697 35.7881 112.032 35.7881C110.503 35.7881 109.33 36.0518 108.446 36.5132C107.22 37.1328 106.653 37.9634 106.653 38.7808C106.653 39.4927 107.128 40.0068 107.893 40.0068C108.459 40.0068 108.829 39.8618 109.224 39.5454C110.002 38.8467 110.753 38.4512 111.808 38.4512C113.403 38.4512 114.287 39.1895 114.287 40.6001V41.7471H110.964C107.787 41.7471 105.875 43.3423 105.875 45.9263C105.875 48.4707 107.721 50.1846 110.45 50.1846C112.164 50.1846 113.548 49.4727 114.26 48.2202ZM109.33 45.7153C109.33 44.5684 110.173 43.8828 111.597 43.8828H114.287V45.333C114.287 46.6514 113.113 47.6797 111.61 47.6797C110.252 47.6797 109.33 46.8755 109.33 45.7153ZM123.542 36.0122C122.065 36.0122 121.287 36.7505 121.287 38.1348V48.2202C121.287 49.4727 121.933 50.1318 123.001 50.1318C124.069 50.1318 124.754 49.4858 124.754 48.2202V38.6357H129.184C130.001 38.6357 130.555 38.1084 130.555 37.3174C130.555 36.5264 130.001 36.0122 129.184 36.0122H123.542ZM140.548 48.2202H140.72V48.708C140.825 49.6177 141.432 50.1318 142.354 50.1318C143.436 50.1318 144.042 49.4595 144.042 48.2729V40.6265C144.042 37.5283 141.985 35.7881 138.32 35.7881C136.791 35.7881 135.618 36.0518 134.734 36.5132C133.508 37.1328 132.941 37.9634 132.941 38.7808C132.941 39.4927 133.416 40.0068 134.181 40.0068C134.748 40.0068 135.117 39.8618 135.512 39.5454C136.29 38.8467 137.042 38.4512 138.096 38.4512C139.691 38.4512 140.575 39.1895 140.575 40.6001V41.7471H137.252C134.075 41.7471 132.164 43.3423 132.164 45.9263C132.164 48.4707 134.009 50.1846 136.738 50.1846C138.452 50.1846 139.836 49.4727 140.548 48.2202ZM135.618 45.7153C135.618 44.5684 136.461 43.8828 137.885 43.8828H140.575V45.333C140.575 46.6514 139.401 47.6797 137.898 47.6797C136.541 47.6797 135.618 46.8755 135.618 45.7153ZM150.555 41.8657V41.7734C150.581 39.73 151.662 38.5171 153.481 38.5171C154.497 38.5171 155.195 38.8467 155.894 39.5322C156.421 40.0068 156.751 40.2837 157.331 40.2837C158.043 40.2837 158.544 39.7827 158.544 39.0049C158.544 38.2271 158.017 37.4229 157.12 36.8164C156.145 36.144 154.8 35.7485 153.284 35.7485C149.421 35.7485 147.021 38.2666 147.021 42.0767V43.8301C147.021 47.9038 149.5 50.3032 153.284 50.3032C154.866 50.3032 156.276 49.9077 157.265 49.1958C158.122 48.6157 158.61 47.8511 158.61 47.0996C158.61 46.3218 158.109 45.834 157.344 45.834C156.777 45.834 156.514 46.0713 155.986 46.5327C155.34 47.1787 154.602 47.5479 153.561 47.5479C151.715 47.5479 150.594 46.3481 150.555 44.3047V44.0278H154.286C154.984 44.0278 155.446 43.606 155.446 42.9468C155.446 42.2744 154.984 41.8657 154.286 41.8657H150.555ZM162.314 42.6436C162.341 43.5005 163.026 44.1465 163.896 44.1465C164.74 44.1465 165.413 43.5269 165.452 42.6436L165.769 33.3491C165.808 32.3208 164.991 31.4902 163.896 31.4902C162.802 31.4902 161.998 32.3208 162.038 33.3491L162.314 42.6436ZM161.893 48.4048C161.893 49.499 162.789 50.2637 163.883 50.2637C164.991 50.2637 165.887 49.499 165.887 48.4048C165.887 47.3105 164.991 46.5459 163.883 46.5459C162.789 46.5459 161.893 47.3105 161.893 48.4048Z" fill="#67B0FF"/>
</svg>
