<svg width="24" height="24" viewBox="0 0 24 24" fill="none" xmlns="http://www.w3.org/2000/svg">
<path fill-rule="evenodd" clip-rule="evenodd" d="M12.1958 23.4185C18.5021 23.4185 23.6143 18.3062 23.6143 12C23.6143 5.69385 18.5021 0.581543 12.1958 0.581543C5.88953 0.581543 0.777344 5.69385 0.777344 12C0.777344 18.3062 5.88953 23.4185 12.1958 23.4185ZM17.2783 8.63672L13.9336 11.9941L17.2783 15.3516C17.5116 15.5854 17.6394 15.8955 17.6394 16.2241C17.6394 16.5527 17.5116 16.8628 17.2783 17.0972C17.0466 17.3296 16.7389 17.458 16.4102 17.458C16.0814 17.458 15.7738 17.3296 15.5406 17.0972L12.1958 13.7383L8.84961 17.0972C8.38452 17.5625 7.57678 17.5625 7.11182 17.0972C6.97717 16.9609 6.87756 16.7993 6.81775 16.623C6.77466 16.4961 6.7522 16.3618 6.7522 16.2241C6.7522 15.8955 6.88 15.5854 7.11182 15.3516L10.4567 11.9941L7.11182 8.63672C6.88 8.40234 6.7522 8.09229 6.7522 7.76367C6.7522 7.43506 6.88 7.125 7.11182 6.89111C7.57678 6.42578 8.38452 6.42578 8.84961 6.89111L12.1958 10.25L15.5406 6.89111C16.0056 6.42578 16.8134 6.42578 17.2783 6.89111C17.4237 7.03711 17.5282 7.2124 17.5863 7.40381C17.6213 7.51904 17.6394 7.64014 17.6394 7.76367C17.6394 8.09229 17.5116 8.40234 17.2783 8.63672Z" fill="white"/>
</svg>
