<svg width="414" height="78" viewBox="0 0 414 78" fill="none" xmlns="http://www.w3.org/2000/svg">
<path d="M128.344 8.65625V4.32812H132.672V8.65625H128.344ZM119.688 17.3125V12.9844H124.016V17.3125H119.688ZM111.031 25.9687V21.6406H115.359V25.9687H111.031ZM102.375 34.625V30.2969H106.703V34.625H102.375ZM93.7188 43.2812V38.9531H98.0469V43.2812H93.7188ZM85.0625 51.9375V47.6094H89.3906V51.9375H85.0625ZM76.4063 60.5937V56.2656H80.7344V60.5937H76.4063ZM67.75 25.9687V21.6406H63.4219V25.9687H67.75ZM72.0781 25.9687H67.75V30.2969H72.0781V25.9687ZM76.4063 21.6406H72.0781V25.9687H76.4063V21.6406ZM76.4063 17.3125V21.6406H80.7344V17.3125H76.4063ZM72.0781 12.9844V17.3125H76.4063V12.9844H72.0781ZM67.75 12.9844H72.0781V8.65625H67.75V12.9844ZM63.4219 17.3125H67.75V12.9844H63.4219V17.3125ZM59.0938 21.6406H63.4219V17.3125H59.0938V21.6406ZM59.0938 60.5937V56.2656H63.4219V60.5937H59.0938ZM50.4375 51.9375V47.6094H54.7656V51.9375H50.4375ZM41.7813 43.2812V38.9531H46.1094V43.2812H41.7813ZM33.125 34.625V30.2969H37.4531V34.625H33.125ZM24.4688 25.9687V21.6406H28.7969V25.9687H24.4688ZM15.8125 17.3125V12.9844H20.1406V17.3125H15.8125ZM7.15625 8.65625V4.32812H11.4844V8.65625H7.15625ZM2.82812 60.5937V64.9219H7.15624V60.5937H2.82812ZM-1.50001 60.5937H2.82812V56.2656H-1.50001V60.5937ZM-5.82813 64.9219H-1.50001V60.5937H-5.82813V64.9219ZM-10.1562 8.65625V4.32812H-5.82812V8.65625H-10.1562ZM-18.8125 17.3125V12.9844H-14.4844V17.3125H-18.8125ZM-27.4687 25.9687V21.6406H-23.1406V25.9687H-27.4687ZM-36.125 34.625V30.2969H-31.7969V34.625H-36.125ZM-44.7812 43.2812V38.9531H-40.4531V43.2812H-44.7812ZM-53.4375 51.9375V47.6094H-49.1094V51.9375H-53.4375ZM-62.0937 60.5937V56.2656H-57.7656V60.5937H-62.0937ZM-70.75 25.9687V21.6406H-75.0781V25.9687H-70.75ZM-66.4219 25.9687H-70.75V30.2969H-66.4219V25.9687ZM-62.0937 21.6406H-66.4219V25.9687H-62.0937V21.6406ZM-62.0937 17.3125V21.6406H-57.7656V17.3125H-62.0937ZM-66.4219 12.9844V17.3125H-62.0937V12.9844H-66.4219ZM-70.75 12.9844H-66.4219V8.65625H-70.75V12.9844ZM-75.0781 17.3125H-70.75V12.9844H-75.0781V17.3125ZM-79.4062 21.6406H-75.0781V17.3125H-79.4062V21.6406ZM-79.4062 60.5937V56.2656H-75.0781V60.5937H-79.4062ZM-88.0625 51.9375V47.6094H-83.7344V51.9375H-88.0625ZM-96.7187 43.2812V38.9531H-92.3906V43.2812H-96.7187ZM-105.375 34.625V30.2969H-101.047V34.625H-105.375ZM-114.031 25.9687V21.6406H-109.703V25.9687H-114.031ZM-122.687 17.3125V12.9844H-118.359V17.3125H-122.687ZM-131.344 8.65625V4.32812H-127.016V8.65625H-131.344ZM-135.672 60.5937V56.2656H-140V60.5937H-135.672ZM-140 73.5781H-135.672V77.9062H-131.344V73.5781H-127.016V69.25H-122.687V73.5781H-118.359V77.9062H-114.031V73.5781H-109.703V69.25H-105.375V73.5781H-101.047V77.9062H-96.7187V73.5781H-92.3906V69.25H-88.0625V73.5781H-83.7344V77.9062H-79.4062V73.5781H-75.0781V69.25H-70.75V73.5781H-66.4219V77.9062H-62.0937V73.5781H-57.7656V69.25H-53.4375V73.5781H-49.1094V77.9062H-44.7812V73.5781H-40.4531V69.25H-36.125V73.5781H-31.7969V77.9062H-27.4687V73.5781H-23.1406V69.25H-18.8125V73.5781H-14.4844V77.9062H-10.1562V73.5781H-5.82812V69.25H-1.5V73.5781H2.82813V77.9062H7.15625V73.5781H11.4844V69.25H15.8125V73.5781H20.1406V77.9062H24.4688V73.5781H28.7969V69.25H33.125V73.5781H37.4531V77.9062H41.7813V73.5781H46.1094V69.25H50.4375V73.5781H54.7656V77.9062H59.0938V73.5781H63.4219V69.25H67.75V73.5781H72.0781V77.9062H76.4063V73.5781H80.7344V69.25H85.0625V73.5781H89.3906V77.9062H93.7188V73.5781H98.0469V69.25H102.375V73.5781H106.703V77.9062H111.031V73.5781H115.359V69.25H119.688V73.5781H124.016V77.9062H128.344V73.5781H132.672V69.25H137V64.9219V60.5937H132.672V64.9219H85.0625V56.2656H89.3906H93.7188V47.6094H98.0469H102.375V38.9531H106.703H111.031V30.2969H115.359L119.688 30.2969V21.6406H124.016H128.344V17.3125V12.9844H132.672H137V4.32812V-2.14577e-06H132.672H128.344H124.016V4.32812V8.65625H119.688H115.359V12.9844V17.3125H111.031H106.703V21.6406V25.9687H102.375H98.0469V30.2969V34.625H93.7188H89.3906V38.9531V43.2812H85.0625H80.7344V47.6094V51.9375H76.4063L72.0781 51.9375V60.5937V64.9219H67.75V60.5937V51.9375H63.4219H59.0938V47.6094V43.2812H54.7656H50.4375V38.9531V34.625H46.1094H41.7813V30.2969V25.9687H37.4531H33.125V21.6406V17.3125H28.7969H24.4688V12.9844V8.65625H20.1406H15.8125V4.32812V-2.14577e-06H11.4844H7.15625H2.82813V4.32812V12.9844H7.15625H11.4844V17.3125V21.6406H15.8125H20.1406V30.2969H24.4688H28.7969V38.9531H33.125H37.4531V47.6094H41.7813H46.1094V56.2656H50.4375H54.7656V64.9219L-53.4375 64.9219V56.2656H-49.1094H-44.7812V47.6094H-40.4531H-36.125V38.9531H-31.7969H-27.4687V30.2969H-23.1406H-18.8125V21.6406H-14.4844H-10.1562V17.3125V12.9844H-5.82812H-1.5V4.32812V-2.14577e-06H-5.82812H-10.1562H-14.4844V4.32812V8.65625H-18.8125H-23.1406V12.9844V17.3125H-27.4687H-31.7969V21.6406V25.9687H-36.125H-40.4531V30.2969V34.625H-44.7812H-49.1094V38.9531V43.2812H-53.4375L-57.7656 43.2812V47.6094V51.9375H-62.0937H-66.4219V60.5937V64.9219H-70.75V60.5937V51.9375H-75.0781H-79.4062V47.6094V43.2812H-83.7344H-88.0625V38.9531V34.625H-92.3906H-96.7187V30.2969V25.9687H-101.047H-105.375V21.6406V17.3125H-109.703H-114.031V12.9844V8.65625H-118.359H-122.687V4.32812V-2.14577e-06H-127.016H-131.344H-135.672V4.32812V12.9844H-131.344H-127.016V17.3125V21.6406H-122.687H-118.359V30.2969H-114.031H-109.703V38.9531H-105.375H-101.047V47.6094H-96.7187H-92.3906V56.2656H-88.0625H-83.7344V64.9219H-131.344V60.5937H-135.672V64.9219H-140V69.25V73.5781Z" fill="#67B0FF"/>
<path d="M-140 64.9219H-135.672V60.5937H-140V64.9219ZM-140 30.2969H-135.672V25.9687H-131.344V21.6406H-135.672V17.3125H-140V21.6406V25.9687V30.2969ZM-135.672 73.5781H-131.344V69.25H-135.672V73.5781ZM-135.672 51.9375H-131.344V56.2656H-127.016V51.9375H-122.687V47.6094H-118.359V43.2812H-114.031V34.625H-118.359V30.2969H-122.687V25.9687H-127.016V30.2969H-131.344V34.625H-135.672V43.2812V47.6094V51.9375ZM-114.031 43.2812V47.6094H-118.359V51.9375H-122.687V56.2656H-127.016V60.5937H-122.687V64.9219H-118.359H-114.031H-105.375V60.5937H-101.047V56.2656H-96.7187V51.9375H-101.047V47.6094H-105.375V43.2812H-114.031ZM-118.359 73.5781H-114.031V69.25H-118.359V73.5781ZM-118.359 4.32812H-109.703V8.65625V12.9844H-101.047V17.3125V21.6406H-92.3906V25.9687V30.2969H-83.7344V34.625V38.9531H-75.0781V43.2812V47.6094H-70.75V43.2812H-66.4219V47.6094H-62.0937V43.2812V38.9531L-53.4375 38.9531V34.625V30.2969H-44.7812V25.9687V21.6406H-36.125V17.3125H-31.7969V12.9844H-27.4687V8.65625V4.32812H-18.8125V-2.02656e-06H-118.359V4.32812ZM-101.047 73.5781H-96.7187V69.25H-101.047V73.5781ZM-96.7187 64.9219H-92.3906V60.5937H-96.7187V64.9219ZM-96.7187 12.9844V8.65625H-92.3906V4.32812H-88.0625V8.65625H-83.7344V12.9844H-88.0625V17.3125H-92.3906V12.9844H-96.7187ZM-83.7344 73.5781H-79.4062V69.25H-83.7344V73.5781ZM-83.7344 21.6406V17.3125H-79.4062V12.9844V8.65625H-70.75V4.32812H-66.4219V8.65625H-57.7656V12.9844V17.3125L-53.4375 17.3125V21.6406L-57.7656 21.6406V25.9687V30.2969H-66.4219V34.625H-70.75V30.2969H-79.4062V25.9687V21.6406H-83.7344ZM-75.0781 21.6406H-70.75V25.9687H-66.4219V21.6406H-62.0937V17.3125H-66.4219V12.9844H-70.75V17.3125H-75.0781V21.6406ZM-66.4219 73.5781H-62.0937V69.25H-66.4219V73.5781ZM-49.1094 73.5781H-44.7812V69.25H-49.1094V73.5781ZM-49.1094 12.9844V8.65625H-44.7812V4.32812H-40.4531V8.65625H-36.125V12.9844H-40.4531V17.3125H-44.7812V12.9844H-49.1094ZM-44.7812 64.9219H-40.4531V60.5937H-44.7812V64.9219ZM-40.4531 56.2656H-36.125V60.5937L-31.7969 60.5937V64.9219H-23.1406H-18.8125H-14.4844V60.5937H-10.1562V56.2656L-14.4844 56.2656V51.9375H-18.8125V47.6094H-23.1406V43.2812H-31.7969V47.6094H-36.125V51.9375H-40.4531V56.2656ZM-23.1406 43.2812H-18.8125V47.6094H-14.4844V51.9375L-10.1562 51.9375V56.2656H-5.82812V51.9375H-1.5V47.6094V43.2812V34.625H-5.82812V30.2969H-10.1562V25.9687H-14.4844V30.2969H-18.8125V34.625H-23.1406V43.2812ZM-31.7969 73.5781H-27.4687V69.25H-31.7969V73.5781ZM-14.4844 73.5781H-10.1562V69.25H-14.4844V73.5781ZM-5.82812 25.9687H-1.5V30.2969H2.82813V25.9687H7.15625V21.6406H2.82813V17.3125H-1.5V21.6406H-5.82812V25.9687ZM-1.5 64.9219H2.82813V60.5937H-1.5V64.9219ZM2.82813 73.5781H7.15625V69.25H2.82813V73.5781ZM2.82813 51.9375H7.15625V56.2656H11.4844V51.9375H15.8125V47.6094H20.1406V43.2812H24.4688V34.625H20.1406V30.2969H15.8125V25.9687H11.4844V30.2969H7.15625V34.625H2.82813V43.2812V47.6094V51.9375ZM24.4688 43.2812V47.6094H20.1406V51.9375H15.8125V56.2656H11.4844V60.5937H15.8125V64.9219H20.1406H24.4688H33.125V60.5937H37.4531V56.2656H41.7813V51.9375H37.4531V47.6094H33.125V43.2812H24.4688ZM20.1406 73.5781H24.4688V69.25H20.1406V73.5781ZM20.1406 4.32812H28.7969V8.65625V12.9844H37.4531V17.3125V21.6406H46.1094V25.9687V30.2969H54.7656V34.625V38.9531H63.4219V43.2812V47.6094H67.75V43.2812H72.0781V47.6094L76.4063 47.6094V43.2812V38.9531H85.0625V34.625V30.2969H93.7188V25.9687V21.6406H102.375V17.3125H106.703V12.9844H111.031V8.65625V4.32812H119.688V-2.02656e-06L20.1406 -2.02656e-06V4.32812ZM37.4531 73.5781H41.7813V69.25L37.4531 69.25V73.5781ZM41.7813 64.9219H46.1094V60.5937H41.7813V64.9219ZM41.7813 12.9844V8.65625H46.1094V4.32812H50.4375V8.65625H54.7656V12.9844H50.4375V17.3125H46.1094V12.9844H41.7813ZM54.7656 73.5781H59.0938V69.25H54.7656V73.5781ZM54.7656 21.6406V17.3125H59.0938V12.9844V8.65625H67.75V4.32812H72.0781V8.65625H80.7344V12.9844V17.3125H85.0625V21.6406H80.7344V25.9687V30.2969H72.0781V34.625H67.75V30.2969H59.0938V25.9687V21.6406H54.7656ZM63.4219 21.6406H67.75V25.9687H72.0781V21.6406H76.4063V17.3125H72.0781V12.9844H67.75V17.3125H63.4219V21.6406ZM72.0781 73.5781H76.4063V69.25H72.0781V73.5781ZM89.3906 73.5781H93.7188V69.25H89.3906V73.5781ZM89.3906 12.9844V8.65625H93.7188V4.32812H98.0469V8.65625H102.375V12.9844H98.0469V17.3125H93.7188V12.9844H89.3906ZM93.7188 64.9219H98.0469V60.5937L93.7188 60.5937V64.9219ZM98.0469 56.2656H102.375V60.5937H106.703V64.9219H115.359H119.688H124.016V60.5937H128.344V56.2656H124.016V51.9375H119.688V47.6094H115.359V43.2812H106.703V47.6094H102.375V51.9375H98.0469V56.2656ZM115.359 43.2812H119.688V47.6094H124.016V51.9375H128.344V56.2656H132.672V51.9375H137V34.625H132.672V30.2969H128.344V25.9687H124.016V30.2969H119.688V34.625L115.359 34.625V43.2812ZM106.703 73.5781H111.031V69.25H106.703V73.5781ZM124.016 73.5781H128.344V69.25H124.016V73.5781ZM132.672 25.9687H137V21.6406H132.672V25.9687Z" fill="#67B0FF"/>
<path d="M405.344 8.65625V4.32812H409.672V8.65625H405.344ZM396.688 17.3125V12.9844H401.016V17.3125H396.688ZM388.031 25.9687V21.6406H392.359V25.9687H388.031ZM379.375 34.625V30.2969H383.703V34.625H379.375ZM370.719 43.2812V38.9531H375.047V43.2812H370.719ZM362.063 51.9375V47.6094H366.391V51.9375H362.063ZM353.406 60.5937V56.2656H357.734V60.5937H353.406ZM344.75 25.9687V21.6406H340.422V25.9687H344.75ZM349.078 25.9687H344.75V30.2969H349.078V25.9687ZM353.406 21.6406H349.078V25.9687H353.406V21.6406ZM353.406 17.3125V21.6406H357.734V17.3125H353.406ZM349.078 12.9844V17.3125H353.406V12.9844H349.078ZM344.75 12.9844H349.078V8.65625H344.75V12.9844ZM340.422 17.3125H344.75V12.9844H340.422V17.3125ZM336.094 21.6406H340.422V17.3125H336.094V21.6406ZM336.094 60.5937V56.2656H340.422V60.5937H336.094ZM327.438 51.9375V47.6094H331.766V51.9375H327.438ZM318.781 43.2812V38.9531H323.109V43.2812H318.781ZM310.125 34.625V30.2969H314.453V34.625H310.125ZM301.469 25.9687V21.6406H305.797V25.9687H301.469ZM292.813 17.3125V12.9844H297.141V17.3125H292.813ZM284.156 8.65625V4.32812H288.484V8.65625H284.156ZM279.828 60.5937V64.9219H284.156V60.5937H279.828ZM275.5 60.5937H279.828V56.2656H275.5V60.5937ZM271.172 64.9219H275.5V60.5937H271.172V64.9219ZM266.844 8.65625V4.32812H271.172V8.65625H266.844ZM258.188 17.3125V12.9844H262.516V17.3125H258.188ZM249.531 25.9687V21.6406H253.859V25.9687H249.531ZM240.875 34.625V30.2969H245.203V34.625H240.875ZM232.219 43.2812V38.9531H236.547V43.2812H232.219ZM223.563 51.9375V47.6094H227.891V51.9375H223.563ZM214.906 60.5937V56.2656H219.234V60.5937H214.906ZM206.25 25.9687V21.6406H201.922V25.9687H206.25ZM210.578 25.9687H206.25V30.2969H210.578V25.9687ZM214.906 21.6406H210.578V25.9687H214.906V21.6406ZM214.906 17.3125V21.6406H219.234V17.3125H214.906ZM210.578 12.9844V17.3125H214.906V12.9844H210.578ZM206.25 12.9844H210.578V8.65625H206.25V12.9844ZM201.922 17.3125H206.25V12.9844H201.922V17.3125ZM197.594 21.6406H201.922V17.3125H197.594V21.6406ZM197.594 60.5937V56.2656H201.922V60.5937H197.594ZM188.938 51.9375V47.6094H193.266V51.9375H188.938ZM180.281 43.2812V38.9531H184.609V43.2812H180.281ZM171.625 34.625V30.2969H175.953V34.625H171.625ZM162.969 25.9687V21.6406H167.297V25.9687H162.969ZM154.313 17.3125V12.9844H158.641V17.3125H154.313ZM145.656 8.65625V4.32812H149.984V8.65625H145.656ZM141.328 60.5937V56.2656H137V60.5937H141.328ZM137 73.5781H141.328V77.9062H145.656V73.5781H149.984V69.25H154.313V73.5781H158.641V77.9062H162.969V73.5781H167.297V69.25H171.625V73.5781H175.953V77.9062H180.281V73.5781H184.609V69.25H188.938V73.5781H193.266V77.9062H197.594V73.5781H201.922V69.25H206.25V73.5781H210.578V77.9062H214.906V73.5781H219.234V69.25H223.563V73.5781H227.891V77.9062H232.219V73.5781H236.547V69.25H240.875V73.5781H245.203V77.9062H249.531V73.5781H253.859V69.25H258.188V73.5781H262.516V77.9062H266.844V73.5781H271.172V69.25H275.5V73.5781H279.828V77.9062H284.156V73.5781H288.484V69.25H292.813V73.5781H297.141V77.9062H301.469V73.5781H305.797V69.25H310.125V73.5781H314.453V77.9062H318.781V73.5781H323.109V69.25H327.438V73.5781H331.766V77.9062H336.094V73.5781H340.422V69.25H344.75V73.5781H349.078V77.9062H353.406V73.5781H357.734V69.25H362.063V73.5781H366.391V77.9062H370.719V73.5781H375.047V69.25H379.375V73.5781H383.703V77.9062H388.031V73.5781H392.359V69.25H396.688V73.5781H401.016V77.9062H405.344V73.5781H409.672V69.25H414V64.9219V60.5937H409.672V64.9219H362.063V56.2656H366.391H370.719V47.6094H375.047H379.375V38.9531H383.703H388.031V30.2969H392.359L396.688 30.2969V21.6406H401.016H405.344V17.3125V12.9844H409.672H414V4.32812V-2.14577e-06H409.672H405.344H401.016V4.32812V8.65625H396.688H392.359V12.9844V17.3125H388.031H383.703V21.6406V25.9687H379.375H375.047V30.2969V34.625H370.719H366.391V38.9531V43.2812H362.063H357.734V47.6094V51.9375H353.406L349.078 51.9375V60.5937V64.9219H344.75V60.5937V51.9375H340.422H336.094V47.6094V43.2812H331.766H327.438V38.9531V34.625H323.109H318.781V30.2969V25.9687H314.453H310.125V21.6406V17.3125H305.797H301.469V12.9844V8.65625H297.141H292.813V4.32812V-2.14577e-06H288.484H284.156H279.828V4.32812V12.9844H284.156H288.484V17.3125V21.6406H292.813H297.141V30.2969H301.469H305.797V38.9531H310.125H314.453V47.6094H318.781H323.109V56.2656H327.438H331.766V64.9219L223.563 64.9219V56.2656H227.891H232.219V47.6094H236.547H240.875V38.9531H245.203H249.531V30.2969H253.859H258.188V21.6406H262.516H266.844V17.3125V12.9844H271.172H275.5V4.32812V-2.14577e-06H271.172H266.844H262.516V4.32812V8.65625H258.188H253.859V12.9844V17.3125H249.531H245.203V21.6406V25.9687H240.875H236.547V30.2969V34.625H232.219H227.891V38.9531V43.2812H223.563L219.234 43.2812V47.6094V51.9375H214.906H210.578V60.5937V64.9219H206.25V60.5937V51.9375H201.922H197.594V47.6094V43.2812H193.266H188.938V38.9531V34.625H184.609H180.281V30.2969V25.9687H175.953H171.625V21.6406V17.3125H167.297H162.969V12.9844V8.65625H158.641H154.313V4.32812V-2.14577e-06H149.984H145.656H141.328V4.32812V12.9844H145.656H149.984V17.3125V21.6406H154.313H158.641V30.2969H162.969H167.297V38.9531H171.625H175.953V47.6094H180.281H184.609V56.2656H188.938H193.266V64.9219H145.656V60.5937H141.328V64.9219H137V69.25V73.5781Z" fill="#67B0FF"/>
<path d="M137 64.9219H141.328V60.5937H137V64.9219ZM137 30.2969H141.328V25.9687H145.656V21.6406H141.328V17.3125H137V21.6406V25.9687V30.2969ZM141.328 73.5781H145.656V69.25H141.328V73.5781ZM141.328 51.9375H145.656V56.2656H149.984V51.9375H154.313V47.6094H158.641V43.2812H162.969V34.625H158.641V30.2969H154.313V25.9687H149.984V30.2969H145.656V34.625H141.328V43.2812V47.6094V51.9375ZM162.969 43.2812V47.6094H158.641V51.9375H154.313V56.2656H149.984V60.5937H154.313V64.9219H158.641H162.969H171.625V60.5937H175.953V56.2656H180.281V51.9375H175.953V47.6094H171.625V43.2812H162.969ZM158.641 73.5781H162.969V69.25H158.641V73.5781ZM158.641 4.32812H167.297V8.65625V12.9844H175.953V17.3125V21.6406H184.609V25.9687V30.2969H193.266V34.625V38.9531H201.922V43.2812V47.6094H206.25V43.2812H210.578V47.6094H214.906V43.2812V38.9531L223.563 38.9531V34.625V30.2969H232.219V25.9687V21.6406H240.875V17.3125H245.203V12.9844H249.531V8.65625V4.32812H258.188V-2.02656e-06H158.641V4.32812ZM175.953 73.5781H180.281V69.25H175.953V73.5781ZM180.281 64.9219H184.609V60.5937H180.281V64.9219ZM180.281 12.9844V8.65625H184.609V4.32812H188.938V8.65625H193.266V12.9844H188.938V17.3125H184.609V12.9844H180.281ZM193.266 73.5781H197.594V69.25H193.266V73.5781ZM193.266 21.6406V17.3125H197.594V12.9844V8.65625H206.25V4.32812H210.578V8.65625H219.234V12.9844V17.3125L223.563 17.3125V21.6406L219.234 21.6406V25.9687V30.2969H210.578V34.625H206.25V30.2969H197.594V25.9687V21.6406H193.266ZM201.922 21.6406H206.25V25.9687H210.578V21.6406H214.906V17.3125H210.578V12.9844H206.25V17.3125H201.922V21.6406ZM210.578 73.5781H214.906V69.25H210.578V73.5781ZM227.891 73.5781H232.219V69.25H227.891V73.5781ZM227.891 12.9844V8.65625H232.219V4.32812H236.547V8.65625H240.875V12.9844H236.547V17.3125H232.219V12.9844H227.891ZM232.219 64.9219H236.547V60.5937H232.219V64.9219ZM236.547 56.2656H240.875V60.5937L245.203 60.5937V64.9219H253.859H258.188H262.516V60.5937H266.844V56.2656L262.516 56.2656V51.9375H258.188V47.6094H253.859V43.2812H245.203V47.6094H240.875V51.9375H236.547V56.2656ZM253.859 43.2812H258.188V47.6094H262.516V51.9375L266.844 51.9375V56.2656H271.172V51.9375H275.5V47.6094V43.2812V34.625H271.172V30.2969H266.844V25.9687H262.516V30.2969H258.188V34.625H253.859V43.2812ZM245.203 73.5781H249.531V69.25H245.203V73.5781ZM262.516 73.5781H266.844V69.25H262.516V73.5781ZM271.172 25.9687H275.5V30.2969H279.828V25.9687H284.156V21.6406H279.828V17.3125H275.5V21.6406H271.172V25.9687ZM275.5 64.9219H279.828V60.5937H275.5V64.9219ZM279.828 73.5781H284.156V69.25H279.828V73.5781ZM279.828 51.9375H284.156V56.2656H288.484V51.9375H292.813V47.6094H297.141V43.2812H301.469V34.625H297.141V30.2969H292.813V25.9687H288.484V30.2969H284.156V34.625H279.828V43.2812V47.6094V51.9375ZM301.469 43.2812V47.6094H297.141V51.9375H292.813V56.2656H288.484V60.5937H292.813V64.9219H297.141H301.469H310.125V60.5937H314.453V56.2656H318.781V51.9375H314.453V47.6094H310.125V43.2812H301.469ZM297.141 73.5781H301.469V69.25H297.141V73.5781ZM297.141 4.32812H305.797V8.65625V12.9844H314.453V17.3125V21.6406H323.109V25.9687V30.2969H331.766V34.625V38.9531H340.422V43.2812V47.6094H344.75V43.2812H349.078V47.6094L353.406 47.6094V43.2812V38.9531H362.063V34.625V30.2969H370.719V25.9687V21.6406H379.375V17.3125H383.703V12.9844H388.031V8.65625V4.32812H396.688V-2.02656e-06L297.141 -2.02656e-06V4.32812ZM314.453 73.5781H318.781V69.25L314.453 69.25V73.5781ZM318.781 64.9219H323.109V60.5937H318.781V64.9219ZM318.781 12.9844V8.65625H323.109V4.32812H327.438V8.65625H331.766V12.9844H327.438V17.3125H323.109V12.9844H318.781ZM331.766 73.5781H336.094V69.25H331.766V73.5781ZM331.766 21.6406V17.3125H336.094V12.9844V8.65625H344.75V4.32812H349.078V8.65625H357.734V12.9844V17.3125H362.063V21.6406H357.734V25.9687V30.2969H349.078V34.625H344.75V30.2969H336.094V25.9687V21.6406H331.766ZM340.422 21.6406H344.75V25.9687H349.078V21.6406H353.406V17.3125H349.078V12.9844H344.75V17.3125H340.422V21.6406ZM349.078 73.5781H353.406V69.25H349.078V73.5781ZM366.391 73.5781H370.719V69.25H366.391V73.5781ZM366.391 12.9844V8.65625H370.719V4.32812H375.047V8.65625H379.375V12.9844H375.047V17.3125H370.719V12.9844H366.391ZM370.719 64.9219H375.047V60.5937L370.719 60.5937V64.9219ZM375.047 56.2656H379.375V60.5937H383.703V64.9219H392.359H396.688H401.016V60.5937H405.344V56.2656H401.016V51.9375H396.688V47.6094H392.359V43.2812H383.703V47.6094H379.375V51.9375H375.047V56.2656ZM392.359 43.2812H396.688V47.6094H401.016V51.9375H405.344V56.2656H409.672V51.9375H414V34.625H409.672V30.2969H405.344V25.9687H401.016V30.2969H396.688V34.625L392.359 34.625V43.2812ZM383.703 73.5781H388.031V69.25H383.703V73.5781ZM401.016 73.5781H405.344V69.25H401.016V73.5781ZM409.672 25.9687H414V21.6406H409.672V25.9687Z" fill="#67B0FF"/>
</svg>
