<svg width="31" height="31" viewBox="0 0 31 31" fill="none" xmlns="http://www.w3.org/2000/svg">
<path fill-rule="evenodd" clip-rule="evenodd" d="M15.5 1.2915C7.65308 1.2915 1.29163 7.65296 1.29163 15.4998C1.29163 23.3467 7.65308 29.7082 15.5 29.7082C23.3468 29.7082 29.7083 23.3467 29.7083 15.4998C29.7083 7.65296 23.3468 1.2915 15.5 1.2915ZM16.7916 20.6665C16.7916 21.0091 16.6555 21.3376 16.4133 21.5799C16.1711 21.8221 15.8425 21.9582 15.5 21.9582C15.1574 21.9582 14.8288 21.8221 14.5866 21.5799C14.3444 21.3376 14.2083 21.0091 14.2083 20.6665V16.7915H10.3333C9.99072 16.7915 9.66218 16.6554 9.41995 16.4132C9.17771 16.1709 9.04163 15.8424 9.04163 15.4998C9.04163 15.1573 9.17771 14.8287 9.41995 14.5865C9.66218 14.3443 9.99072 14.2082 10.3333 14.2082H14.2083V10.3332C14.2083 9.9906 14.3444 9.66206 14.5866 9.41982C14.8288 9.17759 15.1574 9.0415 15.5 9.0415C15.8425 9.0415 16.1711 9.17759 16.4133 9.41982C16.6555 9.66206 16.7916 9.9906 16.7916 10.3332V14.2082H20.6666C21.0092 14.2082 21.3377 14.3443 21.58 14.5865C21.8222 14.8287 21.9583 15.1573 21.9583 15.4998C21.9583 15.8424 21.8222 16.1709 21.58 16.4132C21.3377 16.6554 21.0092 16.7915 20.6666 16.7915H16.7916V20.6665Z" fill="white"/>
</svg>
