<svg width="414" height="78" viewBox="0 0 414 78" fill="none" xmlns="http://www.w3.org/2000/svg">
<path d="M145.656 69.25V73.5781H141.328V69.25H145.656ZM154.312 60.5938V64.9219H149.984V60.5938H154.312ZM162.969 51.9375V56.2656H158.641V51.9375H162.969ZM171.625 43.2813V47.6094H167.297V43.2813H171.625ZM180.281 34.625V38.9531H175.953V34.625H180.281ZM188.938 25.9688V30.2969H184.609V25.9688H188.938ZM197.594 17.3125V21.6406H193.266V17.3125H197.594ZM206.25 51.9375V56.2656H210.578V51.9375H206.25ZM201.922 51.9375H206.25V47.6094H201.922V51.9375ZM197.594 56.2656H201.922V51.9375H197.594V56.2656ZM197.594 60.5938V56.2656H193.266V60.5938H197.594ZM201.922 64.9219V60.5938H197.594V64.9219H201.922ZM206.25 64.9219H201.922V69.25H206.25V64.9219ZM210.578 60.5938H206.25V64.9219H210.578V60.5938ZM214.906 56.2656H210.578V60.5938H214.906V56.2656ZM214.906 17.3125V21.6406H210.578V17.3125H214.906ZM223.562 25.9688V30.2969H219.234V25.9688H223.562ZM232.219 34.625V38.9531H227.891V34.625H232.219ZM240.875 43.2813V47.6094H236.547V43.2813H240.875ZM249.531 51.9375V56.2656H245.203V51.9375H249.531ZM258.188 60.5938V64.9219H253.859V60.5938H258.188ZM266.844 69.25V73.5781H262.516V69.25H266.844ZM271.172 17.3125V12.9844H266.844V17.3125H271.172ZM275.5 17.3125H271.172V21.6406H275.5V17.3125ZM279.828 12.9844H275.5V17.3125H279.828V12.9844ZM284.156 69.25V73.5781H279.828V69.25H284.156ZM292.812 60.5938V64.9219H288.484V60.5938H292.812ZM301.469 51.9375V56.2656H297.141V51.9375H301.469ZM310.125 43.2813V47.6094H305.797V43.2813H310.125ZM318.781 34.625V38.9531H314.453V34.625H318.781ZM327.438 25.9688V30.2969H323.109V25.9688H327.438ZM336.094 17.3125V21.6406H331.766V17.3125H336.094ZM344.75 51.9375V56.2656H349.078V51.9375H344.75ZM340.422 51.9375H344.75V47.6094H340.422V51.9375ZM336.094 56.2656H340.422V51.9375H336.094V56.2656ZM336.094 60.5938V56.2656H331.766V60.5938H336.094ZM340.422 64.9219V60.5938H336.094V64.9219H340.422ZM344.75 64.9219H340.422V69.25H344.75V64.9219ZM349.078 60.5938H344.75V64.9219H349.078V60.5938ZM353.406 56.2656H349.078V60.5938H353.406V56.2656ZM353.406 17.3125V21.6406H349.078V17.3125H353.406ZM362.062 25.9688V30.2969H357.734V25.9688H362.062ZM370.719 34.625V38.9531H366.391V34.625H370.719ZM379.375 43.2812V47.6094H375.047V43.2812H379.375ZM388.031 51.9375V56.2656H383.703V51.9375H388.031ZM396.688 60.5938V64.9219H392.359V60.5938H396.688ZM405.344 69.25V73.5781H401.016V69.25H405.344ZM409.672 17.3125V21.6406H414V17.3125H409.672ZM414 4.32812H409.672V0L405.344 0V4.32812L401.016 4.32813V8.65625H396.688V4.32813H392.359V0L388.031 0V4.32813H383.703V8.65625H379.375V4.32813H375.047V0L370.719 0V4.32813H366.391V8.65625H362.062V4.32813L357.734 4.32813V0L353.406 0V4.32813H349.078V8.65625H344.75V4.32813H340.422V0L336.094 0V4.32813H331.766V8.65625H327.438V4.32813H323.109V0L318.781 0V4.32813L314.453 4.32813V8.65625H310.125V4.32813H305.797V0L301.469 0V4.32813H297.141V8.65625H292.812V4.32813H288.484V0L284.156 0V4.32813H279.828V8.65625H275.5V4.32813L271.172 4.32813V0L266.844 0V4.32813H262.516V8.65625H258.188V4.32813L253.859 4.32813V0L249.531 0V4.32813H245.203V8.65625H240.875V4.32813H236.547V0L232.219 0V4.32813H227.891V8.65625H223.562V4.32813H219.234V0L214.906 0V4.32813L210.578 4.32813V8.65625H206.25V4.32813H201.922V0L197.594 0V4.32813H193.266V8.65625H188.938V4.32813H184.609V0L180.281 0V4.32813H175.953V8.65625H171.625V4.32813L167.297 4.32813V0L162.969 0V4.32813H158.641V8.65625H154.312V4.32813H149.984V0L145.656 0V4.32813H141.328V8.65625H137V12.9844V17.3125H141.328V12.9844L188.938 12.9844V21.6406H184.609H180.281V30.2969H175.953H171.625V38.9531H167.297H162.969V47.6094H158.641L154.312 47.6094V56.2656H149.984H145.656V60.5938V64.9219H141.328H137V73.5781V77.9063H141.328H145.656H149.984V73.5781V69.25H154.312H158.641V64.9219V60.5938H162.969H167.297V56.2656V51.9375H171.625H175.953V47.6094V43.2813H180.281H184.609V38.9531V34.625H188.938H193.266V30.2969V25.9688H197.594L201.922 25.9688V17.3125V12.9844H206.25V17.3125V25.9688H210.578H214.906V30.2969V34.625H219.234H223.562V38.9531V43.2813H227.891H232.219V47.6094V51.9375H236.547H240.875V56.2656V60.5938H245.203H249.531V64.9219V69.25H253.859H258.188V73.5781V77.9062H262.516H266.844H271.172V73.5781V64.9219H266.844H262.516V60.5938V56.2656H258.188H253.859V47.6094H249.531H245.203V38.9531H240.875H236.547V30.2969H232.219H227.891V21.6406H223.562H219.234V12.9844L327.438 12.9844V21.6406H323.109H318.781V30.2969H314.453H310.125V38.9531H305.797H301.469V47.6094H297.141H292.812V56.2656H288.484H284.156V60.5938V64.9219H279.828H275.5V73.5781V77.9062H279.828H284.156H288.484V73.5781V69.25H292.812H297.141V64.9219V60.5938H301.469H305.797V56.2656V51.9375H310.125H314.453V47.6094V43.2813H318.781H323.109V38.9531V34.625H327.438L331.766 34.625V30.2969V25.9688H336.094H340.422V17.3125V12.9844H344.75V17.3125V25.9688H349.078H353.406V30.2969V34.625H357.734H362.062V38.9531V43.2812H366.391H370.719V47.6094V51.9375H375.047H379.375V56.2656V60.5938H383.703H388.031V64.9219V69.25H392.359H396.688V73.5781V77.9062H401.016H405.344H409.672V73.5781V64.9219H405.344H401.016V60.5938V56.2656H396.688H392.359V47.6094H388.031H383.703V38.9531H379.375H375.047V30.2969L370.719 30.2969H366.391V21.6406H362.062H357.734V12.9844L405.344 12.9844V17.3125H409.672V12.9844H414V8.65625V4.32812Z" fill="#FFE262"/>
<path d="M414 12.9844H409.672V17.3125H414V12.9844ZM414 47.6094H409.672V51.9375H405.344V56.2656H409.672V60.5938H414V56.2656V51.9375V47.6094ZM409.672 4.32812H405.344V8.65625H409.672V4.32812ZM409.672 25.9688H405.344V21.6406H401.016V25.9688H396.688V30.2969H392.359V34.625H388.031V43.2812H392.359V47.6094H396.688V51.9375H401.016V47.6094H405.344V43.2812H409.672V34.625V30.2969V25.9688ZM388.031 34.625V30.2969H392.359V25.9688H396.688V21.6406H401.016V17.3125H396.688V12.9844L392.359 12.9844H388.031H379.375V17.3125H375.047V21.6406L370.719 21.6406V25.9688L375.047 25.9688V30.2969H379.375V34.625H388.031ZM392.359 4.32813H388.031V8.65625H392.359V4.32813ZM392.359 73.5781H383.703V69.25V64.9219H375.047V60.5938V56.2656H366.391V51.9375V47.6094H357.734V43.2812V38.9531H349.078V34.625V30.2969H344.75V34.625H340.422V30.2969H336.094V34.625V38.9531L327.438 38.9531V43.2813V47.6094H318.781V51.9375V56.2656H310.125V60.5938H305.797V64.9219H301.469V69.25V73.5781H292.812V77.9062H392.359V73.5781ZM375.047 4.32813H370.719V8.65625H375.047V4.32813ZM370.719 12.9844H366.391V17.3125H370.719V12.9844ZM370.719 64.9219V69.25H366.391V73.5781H362.062V69.25H357.734V64.9219H362.062V60.5938H366.391V64.9219H370.719ZM357.734 4.32813H353.406V8.65625H357.734V4.32813ZM357.734 56.2656V60.5938H353.406V64.9219V69.25H344.75V73.5781H340.422V69.25H331.766V64.9219V60.5938L327.438 60.5938V56.2656L331.766 56.2656V51.9375V47.6094H340.422V43.2812H344.75V47.6094H353.406V51.9375V56.2656H357.734ZM349.078 56.2656H344.75V51.9375H340.422V56.2656H336.094V60.5938H340.422V64.9219H344.75V60.5938H349.078V56.2656ZM340.422 4.32813L336.094 4.32813V8.65625H340.422V4.32813ZM323.109 4.32813H318.781V8.65625H323.109V4.32813ZM323.109 64.9219V69.25H318.781V73.5781H314.453V69.25H310.125V64.9219H314.453V60.5938H318.781V64.9219H323.109ZM318.781 12.9844H314.453V17.3125H318.781V12.9844ZM314.453 21.6406H310.125V17.3125L305.797 17.3125V12.9844H297.141H292.812H288.484V17.3125H284.156V21.6406L288.484 21.6406V25.9688H292.812V30.2969H297.141V34.625H305.797V30.2969H310.125V25.9688H314.453V21.6406ZM297.141 34.625H292.812V30.2969H288.484V25.9688L284.156 25.9688V21.6406H279.828V25.9688H275.5V30.2969V34.625V43.2813H279.828V47.6094H284.156V51.9375H288.484V47.6094H292.812V43.2813H297.141V34.625ZM305.797 4.32813H301.469V8.65625H305.797V4.32813ZM288.484 4.32813H284.156V8.65625H288.484V4.32813ZM279.828 51.9375H275.5V47.6094H271.172V51.9375H266.844V56.2656H271.172V60.5938H275.5V56.2656H279.828V51.9375ZM275.5 12.9844H271.172V17.3125H275.5V12.9844ZM271.172 4.32813H266.844V8.65625H271.172V4.32813ZM271.172 25.9688H266.844V21.6406H262.516V25.9688H258.188V30.2969H253.859V34.625H249.531V43.2813H253.859V47.6094H258.188V51.9375H262.516V47.6094H266.844V43.2813H271.172V34.625V30.2969V25.9688ZM249.531 34.625V30.2969H253.859V25.9688H258.188V21.6406H262.516V17.3125H258.188V12.9844H253.859H249.531H240.875V17.3125H236.547V21.6406H232.219V25.9688H236.547V30.2969H240.875V34.625H249.531ZM253.859 4.32813H249.531V8.65625H253.859V4.32813ZM253.859 73.5781H245.203V69.25V64.9219H236.547V60.5938V56.2656H227.891V51.9375V47.6094H219.234V43.2813V38.9531H210.578V34.625V30.2969H206.25V34.625H201.922V30.2969L197.594 30.2969V34.625V38.9531H188.938V43.2813V47.6094H180.281V51.9375V56.2656H171.625V60.5938H167.297V64.9219H162.969V69.25V73.5781H154.312V77.9063L253.859 77.9062V73.5781ZM236.547 4.32813L232.219 4.32813V8.65625H236.547V4.32813ZM232.219 12.9844H227.891V17.3125H232.219V12.9844ZM232.219 64.9219V69.25H227.891V73.5781H223.562V69.25H219.234V64.9219H223.562V60.5938H227.891V64.9219H232.219ZM219.234 4.32813H214.906V8.65625H219.234V4.32813ZM219.234 56.2656V60.5938H214.906V64.9219V69.25H206.25V73.5781H201.922V69.25H193.266V64.9219V60.5938H188.938V56.2656H193.266V51.9375V47.6094H201.922V43.2813H206.25V47.6094H214.906V51.9375V56.2656H219.234ZM210.578 56.2656H206.25V51.9375H201.922V56.2656H197.594V60.5938H201.922V64.9219H206.25V60.5938H210.578V56.2656ZM201.922 4.32813H197.594V8.65625H201.922V4.32813ZM184.609 4.32813H180.281V8.65625H184.609V4.32813ZM184.609 64.9219V69.25H180.281V73.5781H175.953V69.25H171.625V64.9219H175.953V60.5938H180.281V64.9219H184.609ZM180.281 12.9844L175.953 12.9844V17.3125L180.281 17.3125V12.9844ZM175.953 21.6406H171.625V17.3125H167.297V12.9844H158.641H154.312H149.984V17.3125H145.656V21.6406H149.984V25.9688H154.312V30.2969H158.641V34.625H167.297V30.2969H171.625V25.9688H175.953V21.6406ZM158.641 34.625H154.312V30.2969H149.984V25.9688H145.656V21.6406H141.328V25.9688H137V43.2813H141.328V47.6094H145.656V51.9375H149.984V47.6094H154.312V43.2813L158.641 43.2813V34.625ZM167.297 4.32813H162.969V8.65625H167.297V4.32813ZM149.984 4.32813L145.656 4.32813V8.65625H149.984V4.32813ZM141.328 51.9375H137V56.2656H141.328V51.9375Z" fill="#FFE262"/>
<path d="M-131.344 69.25V73.5781H-135.672V69.25H-131.344ZM-122.688 60.5938V64.9219H-127.016V60.5938H-122.688ZM-114.031 51.9375V56.2656H-118.359V51.9375H-114.031ZM-105.375 43.2813V47.6094H-109.703V43.2813H-105.375ZM-96.7188 34.625V38.9531H-101.047V34.625H-96.7188ZM-88.0625 25.9688V30.2969H-92.3906V25.9688H-88.0625ZM-79.4062 17.3125V21.6406H-83.7344V17.3125H-79.4062ZM-70.75 51.9375V56.2656H-66.4219V51.9375H-70.75ZM-75.0781 51.9375H-70.75V47.6094H-75.0781V51.9375ZM-79.4062 56.2656H-75.0781V51.9375H-79.4062V56.2656ZM-79.4062 60.5938V56.2656H-83.7344V60.5938H-79.4062ZM-75.0781 64.9219V60.5938H-79.4062V64.9219H-75.0781ZM-70.75 64.9219H-75.0781V69.25H-70.75V64.9219ZM-66.4219 60.5938H-70.75V64.9219H-66.4219V60.5938ZM-62.0938 56.2656H-66.4219V60.5938H-62.0938V56.2656ZM-62.0938 17.3125V21.6406H-66.4219V17.3125H-62.0938ZM-53.4375 25.9688V30.2969H-57.7656V25.9688H-53.4375ZM-44.7812 34.625V38.9531H-49.1094V34.625H-44.7812ZM-36.125 43.2813V47.6094H-40.4531V43.2813H-36.125ZM-27.4688 51.9375V56.2656H-31.7969V51.9375H-27.4688ZM-18.8125 60.5938V64.9219H-23.1406V60.5938H-18.8125ZM-10.1562 69.25V73.5781H-14.4844V69.25H-10.1562ZM-5.82811 17.3125V12.9844H-10.1562V17.3125H-5.82811ZM-1.49998 17.3125H-5.82811V21.6406H-1.49998V17.3125ZM2.82814 12.9844H-1.49998V17.3125H2.82814V12.9844ZM7.15625 69.25V73.5781H2.82812V69.25H7.15625ZM15.8125 60.5938V64.9219H11.4844V60.5938H15.8125ZM24.4688 51.9375V56.2656H20.1406V51.9375H24.4688ZM33.125 43.2813V47.6094H28.7969V43.2813H33.125ZM41.7812 34.625V38.9531H37.4531V34.625H41.7812ZM50.4375 25.9688V30.2969H46.1094V25.9688H50.4375ZM59.0938 17.3125V21.6406H54.7656V17.3125H59.0938ZM67.75 51.9375V56.2656H72.0781V51.9375H67.75ZM63.4219 51.9375H67.75V47.6094H63.4219V51.9375ZM59.0938 56.2656H63.4219V51.9375H59.0938V56.2656ZM59.0938 60.5938V56.2656H54.7656V60.5938H59.0938ZM63.4219 64.9219V60.5938H59.0938V64.9219H63.4219ZM67.75 64.9219H63.4219V69.25H67.75V64.9219ZM72.0781 60.5938H67.75V64.9219H72.0781V60.5938ZM76.4062 56.2656H72.0781V60.5938H76.4062V56.2656ZM76.4062 17.3125V21.6406H72.0781V17.3125H76.4062ZM85.0625 25.9688V30.2969H80.7344V25.9688H85.0625ZM93.7188 34.625V38.9531H89.3906V34.625H93.7188ZM102.375 43.2812V47.6094H98.0469V43.2812H102.375ZM111.031 51.9375V56.2656H106.703V51.9375H111.031ZM119.688 60.5938V64.9219H115.359V60.5938H119.688ZM128.344 69.25V73.5781H124.016V69.25H128.344ZM132.672 17.3125V21.6406H137V17.3125H132.672ZM137 4.32812H132.672V0L128.344 0V4.32812L124.016 4.32813V8.65625H119.688V4.32813H115.359V0L111.031 0V4.32813H106.703V8.65625H102.375V4.32813H98.0469V0L93.7188 0V4.32813H89.3906V8.65625H85.0625V4.32813L80.7344 4.32813V0L76.4062 0V4.32813H72.0781V8.65625H67.75V4.32813H63.4219V0L59.0938 0V4.32813H54.7656V8.65625H50.4375V4.32813H46.1094V0L41.7812 0V4.32813L37.4531 4.32813V8.65625H33.125V4.32813H28.7969V0L24.4688 0V4.32813H20.1406V8.65625H15.8125V4.32813H11.4844V0L7.15625 0V4.32813H2.82812V8.65625H-1.5V4.32813L-5.82812 4.32813V0L-10.1562 0V4.32813H-14.4844V8.65625H-18.8125V4.32813L-23.1406 4.32813V0L-27.4688 0V4.32813H-31.7969V8.65625H-36.125V4.32813H-40.4531V0L-44.7812 0V4.32813H-49.1094V8.65625H-53.4375V4.32813H-57.7656V0L-62.0938 0V4.32813L-66.4219 4.32813V8.65625H-70.75V4.32813H-75.0781V0L-79.4062 0V4.32813H-83.7344V8.65625H-88.0625V4.32813H-92.3906V0L-96.7188 0V4.32813H-101.047V8.65625H-105.375V4.32813L-109.703 4.32813V0L-114.031 0V4.32813H-118.359V8.65625H-122.688V4.32813H-127.016V0L-131.344 0V4.32813H-135.672V8.65625H-140V12.9844V17.3125H-135.672V12.9844L-88.0625 12.9844V21.6406H-92.3906H-96.7188V30.2969H-101.047H-105.375V38.9531H-109.703H-114.031V47.6094H-118.359L-122.688 47.6094V56.2656H-127.016H-131.344V60.5938V64.9219H-135.672H-140V73.5781V77.9063H-135.672H-131.344H-127.016V73.5781V69.25H-122.688H-118.359V64.9219V60.5938H-114.031H-109.703V56.2656V51.9375H-105.375H-101.047V47.6094V43.2813H-96.7188H-92.3906V38.9531V34.625H-88.0625H-83.7344V30.2969V25.9688H-79.4062L-75.0781 25.9688V17.3125V12.9844H-70.75V17.3125V25.9688H-66.4219H-62.0938V30.2969V34.625H-57.7656H-53.4375V38.9531V43.2813H-49.1094H-44.7812V47.6094V51.9375H-40.4531H-36.125V56.2656V60.5938H-31.7969H-27.4688V64.9219V69.25H-23.1406H-18.8125V73.5781V77.9062H-14.4844H-10.1562H-5.82812V73.5781V64.9219H-10.1562H-14.4844V60.5938V56.2656H-18.8125H-23.1406V47.6094H-27.4688H-31.7969V38.9531H-36.125H-40.4531V30.2969H-44.7812H-49.1094V21.6406H-53.4375H-57.7656V12.9844L50.4375 12.9844V21.6406H46.1094H41.7812V30.2969H37.4531H33.125V38.9531H28.7969H24.4688V47.6094H20.1406H15.8125V56.2656H11.4844H7.15625V60.5938V64.9219H2.82812H-1.5V73.5781V77.9062H2.82812H7.15625H11.4844V73.5781V69.25H15.8125H20.1406V64.9219V60.5938H24.4688H28.7969V56.2656V51.9375H33.125H37.4531V47.6094V43.2813H41.7812H46.1094V38.9531V34.625H50.4375L54.7656 34.625V30.2969V25.9688H59.0938H63.4219V17.3125V12.9844H67.75V17.3125V25.9688H72.0781H76.4062V30.2969V34.625H80.7344H85.0625V38.9531V43.2812H89.3906H93.7188V47.6094V51.9375H98.0469H102.375V56.2656V60.5938H106.703H111.031V64.9219V69.25H115.359H119.688V73.5781V77.9062H124.016H128.344H132.672V73.5781V64.9219H128.344H124.016V60.5938V56.2656H119.688H115.359V47.6094H111.031H106.703V38.9531H102.375H98.0469V30.2969L93.7188 30.2969H89.3906V21.6406H85.0625H80.7344V12.9844L128.344 12.9844V17.3125H132.672V12.9844H137V8.65625V4.32812Z" fill="#FFE262"/>
<path d="M137 12.9844H132.672V17.3125H137V12.9844ZM137 47.6094H132.672V51.9375H128.344V56.2656H132.672V60.5938H137V56.2656V51.9375V47.6094ZM132.672 4.32812H128.344V8.65625H132.672V4.32812ZM132.672 25.9688H128.344V21.6406H124.016V25.9688H119.688V30.2969H115.359V34.625H111.031V43.2812H115.359V47.6094H119.688V51.9375H124.016V47.6094H128.344V43.2812H132.672V34.625V30.2969V25.9688ZM111.031 34.625V30.2969H115.359V25.9688H119.688V21.6406H124.016V17.3125H119.688V12.9844L115.359 12.9844H111.031H102.375V17.3125H98.0469V21.6406L93.7188 21.6406V25.9688L98.0469 25.9688V30.2969H102.375V34.625H111.031ZM115.359 4.32813H111.031V8.65625H115.359V4.32813ZM115.359 73.5781H106.703V69.25V64.9219H98.0469V60.5938V56.2656H89.3906V51.9375V47.6094H80.7344V43.2812V38.9531H72.0781V34.625V30.2969H67.75V34.625H63.4219V30.2969H59.0938V34.625V38.9531L50.4375 38.9531V43.2813V47.6094H41.7812V51.9375V56.2656H33.125V60.5938H28.7969V64.9219H24.4688V69.25V73.5781H15.8125V77.9062H115.359V73.5781ZM98.0469 4.32813H93.7188V8.65625H98.0469V4.32813ZM93.7188 12.9844H89.3906V17.3125H93.7188V12.9844ZM93.7188 64.9219V69.25H89.3906V73.5781H85.0625V69.25H80.7344V64.9219H85.0625V60.5938H89.3906V64.9219H93.7188ZM80.7344 4.32813H76.4062V8.65625H80.7344V4.32813ZM80.7344 56.2656V60.5938H76.4062V64.9219V69.25H67.75V73.5781H63.4219V69.25H54.7656V64.9219V60.5938L50.4375 60.5938V56.2656L54.7656 56.2656V51.9375V47.6094H63.4219V43.2812H67.75V47.6094H76.4062V51.9375V56.2656H80.7344ZM72.0781 56.2656H67.75V51.9375H63.4219V56.2656H59.0938V60.5938H63.4219V64.9219H67.75V60.5938H72.0781V56.2656ZM63.4219 4.32813L59.0938 4.32813V8.65625H63.4219V4.32813ZM46.1094 4.32813H41.7812V8.65625H46.1094V4.32813ZM46.1094 64.9219V69.25H41.7812V73.5781H37.4531V69.25H33.125V64.9219H37.4531V60.5938H41.7812V64.9219H46.1094ZM41.7812 12.9844H37.4531V17.3125H41.7812V12.9844ZM37.4531 21.6406H33.125V17.3125L28.7969 17.3125V12.9844H20.1406H15.8125H11.4844V17.3125H7.15625V21.6406L11.4844 21.6406V25.9688H15.8125V30.2969H20.1406V34.625H28.7969V30.2969H33.125V25.9688H37.4531V21.6406ZM20.1406 34.625H15.8125V30.2969H11.4844V25.9688L7.15625 25.9688V21.6406H2.82812V25.9688H-1.5V30.2969V34.625V43.2813H2.82812V47.6094H7.15625V51.9375H11.4844V47.6094H15.8125V43.2813H20.1406V34.625ZM28.7969 4.32813H24.4688V8.65625H28.7969V4.32813ZM11.4844 4.32813H7.15625V8.65625H11.4844V4.32813ZM2.82812 51.9375H-1.5V47.6094H-5.82812V51.9375H-10.1562V56.2656H-5.82812V60.5938H-1.5V56.2656H2.82812V51.9375ZM-1.5 12.9844H-5.82812V17.3125H-1.5V12.9844ZM-5.82812 4.32813H-10.1562V8.65625H-5.82812V4.32813ZM-5.82812 25.9688H-10.1562V21.6406H-14.4844V25.9688H-18.8125V30.2969H-23.1406V34.625H-27.4688V43.2813H-23.1406V47.6094H-18.8125V51.9375H-14.4844V47.6094H-10.1562V43.2813H-5.82812V34.625V30.2969V25.9688ZM-27.4688 34.625V30.2969H-23.1406V25.9688H-18.8125V21.6406H-14.4844V17.3125H-18.8125V12.9844H-23.1406H-27.4688H-36.125V17.3125H-40.4531V21.6406H-44.7812V25.9688H-40.4531V30.2969H-36.125V34.625H-27.4688ZM-23.1406 4.32813H-27.4688V8.65625H-23.1406V4.32813ZM-23.1406 73.5781H-31.7969V69.25V64.9219H-40.4531V60.5938V56.2656H-49.1094V51.9375V47.6094H-57.7656V43.2813V38.9531H-66.4219V34.625V30.2969H-70.75V34.625H-75.0781V30.2969L-79.4062 30.2969V34.625V38.9531H-88.0625V43.2813V47.6094H-96.7188V51.9375V56.2656H-105.375V60.5938H-109.703V64.9219H-114.031V69.25V73.5781H-122.688V77.9063L-23.1406 77.9062V73.5781ZM-40.4531 4.32813L-44.7812 4.32813V8.65625H-40.4531V4.32813ZM-44.7812 12.9844H-49.1094V17.3125H-44.7812V12.9844ZM-44.7812 64.9219V69.25H-49.1094V73.5781H-53.4375V69.25H-57.7656V64.9219H-53.4375V60.5938H-49.1094V64.9219H-44.7812ZM-57.7656 4.32813H-62.0938V8.65625H-57.7656V4.32813ZM-57.7656 56.2656V60.5938H-62.0938V64.9219V69.25H-70.75V73.5781H-75.0781V69.25H-83.7344V64.9219V60.5938H-88.0625V56.2656H-83.7344V51.9375V47.6094H-75.0781V43.2813H-70.75V47.6094H-62.0938V51.9375V56.2656H-57.7656ZM-66.4219 56.2656H-70.75V51.9375H-75.0781V56.2656H-79.4062V60.5938H-75.0781V64.9219H-70.75V60.5938H-66.4219V56.2656ZM-75.0781 4.32813H-79.4062V8.65625H-75.0781V4.32813ZM-92.3906 4.32813H-96.7188V8.65625H-92.3906V4.32813ZM-92.3906 64.9219V69.25H-96.7188V73.5781H-101.047V69.25H-105.375V64.9219H-101.047V60.5938H-96.7188V64.9219H-92.3906ZM-96.7188 12.9844L-101.047 12.9844V17.3125L-96.7188 17.3125V12.9844ZM-101.047 21.6406H-105.375V17.3125H-109.703V12.9844H-118.359H-122.688H-127.016V17.3125H-131.344V21.6406H-127.016V25.9688H-122.688V30.2969H-118.359V34.625H-109.703V30.2969H-105.375V25.9688H-101.047V21.6406ZM-118.359 34.625H-122.688V30.2969H-127.016V25.9688H-131.344V21.6406H-135.672V25.9688H-140V43.2813H-135.672V47.6094H-131.344V51.9375H-127.016V47.6094H-122.688V43.2813L-118.359 43.2813V34.625ZM-109.703 4.32813H-114.031V8.65625H-109.703V4.32813ZM-127.016 4.32813L-131.344 4.32813V8.65625H-127.016V4.32813ZM-135.672 51.9375H-140V56.2656H-135.672V51.9375Z" fill="#FFE262"/>
</svg>
